<?xml version="1.0" standalone="no"?>
<!DOCTYPE svg PUBLIC "-//W3C//DTD SVG 20010904//EN"
 "http://www.w3.org/TR/2001/REC-SVG-20010904/DTD/svg10.dtd">
<svg version="1.0" xmlns="http://www.w3.org/2000/svg"
 width="42.000000pt" height="39.000000pt" viewBox="0 0 42.000000 39.000000"
 preserveAspectRatio="xMidYMid meet">

<g transform="translate(0.000000,39.000000) scale(0.100000,-0.100000)"
fill="#ffffff" stroke="#0f0d07">
<path d="M0 195 l0 -195 210 0 210 0 0 195 0 195 -210 0 -210 0 0 -195z m250
24 c0 -50 -5 -99 -11 -111 -17 -31 -3 -33 18 -2 13 20 19 52 21 116 4 88 4 88
30 87 17 -1 21 -3 10 -6 -15 -4 -18 -17 -18 -81 0 -98 -27 -151 -73 -143 -4 1
-16 -3 -27 -9 -50 -27 -98 36 -65 86 20 31 70 31 70 0 0 -11 -6 -21 -14 -24
-9 -3 -11 1 -6 17 9 29 -20 29 -36 0 -15 -28 3 -69 30 -69 41 0 51 26 51 125
l0 94 -42 4 c-41 3 -41 4 10 5 l52 2 0 -91z"/>
</g>
</svg>
